<svg xmlns="http://www.w3.org/2000/svg" xmlns:xlink="http://www.w3.org/1999/xlink" width="250" zoomAndPan="magnify" viewBox="0 0 187.5 187.499992" height="250" preserveAspectRatio="xMidYMid meet" version="1.0"><defs><g/><clipPath id="971bd4b8e6"><path d="M 36.726562 70.738281 L 141.445312 70.738281 L 141.445312 135.066406 L 36.726562 135.066406 Z M 36.726562 70.738281 " clip-rule="nonzero"/></clipPath><clipPath id="171b6192b0"><path d="M 11.402344 12.664062 L 155.050781 12.664062 L 155.050781 156.3125 L 11.402344 156.3125 Z M 11.402344 12.664062 " clip-rule="nonzero"/></clipPath><clipPath id="9a19ecc276"><path d="M 83.226562 12.664062 C 43.558594 12.664062 11.402344 44.820312 11.402344 84.488281 C 11.402344 124.15625 43.558594 156.3125 83.226562 156.3125 C 122.894531 156.3125 155.050781 124.15625 155.050781 84.488281 C 155.050781 44.820312 122.894531 12.664062 83.226562 12.664062 Z M 83.226562 12.664062 " clip-rule="nonzero"/></clipPath><clipPath id="75ba1c0f0b"><path d="M 0.503906 39 L 32 39 L 32 71 L 0.503906 71 Z M 0.503906 39 " clip-rule="nonzero"/></clipPath><clipPath id="42236a838f"><rect x="0" width="32" y="0" height="32"/></clipPath><clipPath id="0a4897000b"><rect x="0" width="34" y="0" height="33"/></clipPath><clipPath id="360e32f6b6"><path d="M 58 128 L 141 128 L 141 164.972656 L 58 164.972656 Z M 58 128 " clip-rule="nonzero"/></clipPath><clipPath id="0b714bb0f9"><rect x="0" width="83" y="0" height="37"/></clipPath><clipPath id="dc768853a9"><path d="M 20 0.0546875 L 147 0.0546875 L 147 46 L 20 46 Z M 20 0.0546875 " clip-rule="nonzero"/></clipPath><clipPath id="4ef6fc0061"><path d="M 1 0.0546875 L 126 0.0546875 L 126 45 L 1 45 Z M 1 0.0546875 " clip-rule="nonzero"/></clipPath><clipPath id="f5f40e9636"><rect x="0" width="127" y="0" height="46"/></clipPath><clipPath id="dc4db03f10"><path d="M 3.960938 36.40625 L 33 36.40625 L 33 123.808594 L 3.960938 123.808594 Z M 3.960938 36.40625 " clip-rule="nonzero"/></clipPath><clipPath id="ae1c6caf48"><path d="M 119.035156 44.207031 L 176.273438 44.207031 L 176.273438 121.554688 L 119.035156 121.554688 Z M 119.035156 44.207031 " clip-rule="nonzero"/></clipPath><clipPath id="e773983186"><path d="M 92 41.050781 L 110 41.050781 L 110 56 L 92 56 Z M 92 41.050781 " clip-rule="nonzero"/></clipPath><clipPath id="586576c999"><path d="M 85 43 L 115 43 L 115 78.949219 L 85 78.949219 Z M 85 43 " clip-rule="nonzero"/></clipPath><clipPath id="68ae481b6d"><path d="M 53 41.050781 L 70 41.050781 L 70 56 L 53 56 Z M 53 41.050781 " clip-rule="nonzero"/></clipPath><clipPath id="08cb285f91"><path d="M 47.453125 43 L 78 43 L 78 78.949219 L 47.453125 78.949219 Z M 47.453125 43 " clip-rule="nonzero"/></clipPath><clipPath id="9311a762ee"><rect x="0" width="177" y="0" height="165"/></clipPath></defs><g clip-path="url(#971bd4b8e6)"><path fill="#ffffff" d="M 86.324219 70.84375 C 86.03125 71.019531 85.957031 71.453125 86.109375 72.136719 C 86.191406 72.503906 86.1875 72.792969 86.101562 73.578125 C 85.679688 77.300781 84.570312 79.625 81.582031 83.058594 C 81.316406 83.363281 80.792969 83.957031 80.777344 83.96875 C 80.628906 84.097656 79.058594 85.9375 78.621094 86.496094 C 76.230469 89.554688 75.914062 92.054688 77.671875 94.003906 C 78.378906 94.792969 79.136719 95.371094 80.941406 96.503906 C 83.84375 98.320312 84.5625 99.042969 85.128906 100.730469 C 85.628906 102.226562 85.847656 105.492188 85.453125 105.644531 C 85.292969 105.703125 84.542969 105.378906 82.984375 104.570312 C 78.757812 102.378906 76.824219 101.585938 74.660156 101.152344 C 69.300781 100.074219 65.800781 103.316406 67.082031 108.164062 C 67.65625 110.320312 68.75 112.335938 71.578125 116.417969 C 71.796875 116.738281 72.097656 117.171875 72.246094 117.382812 C 74.265625 120.308594 75.390625 121.882812 76.660156 123.566406 C 77.289062 124.398438 78.25 125.613281 78.714844 126.167969 C 78.777344 126.242188 78.898438 126.386719 78.988281 126.492188 C 79.074219 126.597656 79.222656 126.777344 79.3125 126.886719 C 79.402344 126.996094 79.628906 127.265625 79.8125 127.488281 C 80.382812 128.171875 80.492188 128.320312 80.421875 128.320312 C 80.320312 128.320312 79.140625 128.234375 78.371094 128.171875 C 76.808594 128.039062 75.445312 127.910156 72.925781 127.648438 C 67.824219 127.117188 62.671875 126.734375 57.824219 126.523438 C 54.535156 126.382812 50.339844 126.472656 44.875 126.796875 C 39.183594 127.136719 38.816406 127.15625 37.542969 127.15625 L 36.726562 127.15625 L 36.726562 128.148438 L 38.214844 128.132812 C 39.03125 128.125 40.0625 128.09375 40.507812 128.070312 C 40.953125 128.042969 42.417969 127.953125 43.769531 127.871094 C 50.628906 127.457031 53.847656 127.371094 57.347656 127.511719 C 62.109375 127.703125 67.25 128.085938 72.867188 128.664062 C 78.617188 129.257812 80.945312 129.417969 81.285156 129.238281 C 81.777344 128.976562 81.820312 128.433594 81.402344 127.820312 C 81.296875 127.667969 80.648438 126.855469 80.417969 126.585938 C 80.265625 126.414062 79.847656 125.910156 79.367188 125.324219 C 78.566406 124.355469 77.441406 122.890625 76.472656 121.5625 C 76.332031 121.371094 76.117188 121.078125 75.992188 120.902344 C 75.417969 120.117188 74.335938 118.570312 72.226562 115.519531 C 69.347656 111.359375 68.203125 109.089844 67.886719 106.929688 C 67.59375 104.941406 68.464844 103.289062 70.242188 102.464844 C 72.691406 101.320312 75.847656 102.039062 81.644531 105.058594 C 84.429688 106.507812 84.863281 106.6875 85.515625 106.664062 C 85.957031 106.644531 86.28125 106.433594 86.449219 106.046875 C 86.773438 105.3125 86.675781 102.503906 86.269531 100.921875 C 85.699219 98.699219 84.726562 97.621094 81.480469 95.601562 C 77.863281 93.351562 77.085938 92.144531 77.820312 89.933594 C 78.273438 88.578125 79.070312 87.453125 81.523438 84.6875 C 83.851562 82.070312 84.75 80.851562 85.589844 79.183594 C 86.296875 77.785156 86.820312 76.09375 86.988281 74.675781 C 87.011719 74.480469 86.996094 74.46875 87.292969 74.960938 C 87.875 75.921875 88.679688 76.949219 89.894531 78.285156 C 90.039062 78.441406 90.300781 78.730469 90.484375 78.929688 C 90.816406 79.292969 91.214844 79.738281 91.386719 79.933594 C 91.433594 79.988281 91.574219 80.152344 91.699219 80.289062 C 93.835938 82.746094 94.941406 84.796875 95.308594 87.003906 C 95.480469 88.035156 95.492188 88.828125 95.339844 89.761719 C 94.972656 92.070312 93.828125 93.957031 91.605469 95.929688 C 91.164062 96.320312 91.160156 96.320312 90.8125 96.605469 C 90.214844 97.097656 88.980469 98.011719 88.949219 97.984375 C 88.945312 97.980469 89 97.847656 89.074219 97.695312 C 90.652344 94.3125 90.550781 90.710938 88.84375 89.582031 C 88.265625 89.199219 87.453125 89.273438 87.015625 89.746094 C 86.441406 90.363281 86.390625 91.191406 86.726562 94.335938 C 87.097656 97.792969 87.105469 98.953125 86.769531 104.351562 C 86.621094 106.789062 86.648438 107.570312 86.902344 107.8125 C 87.3125 108.203125 87.660156 108.039062 88.242188 107.183594 C 89.964844 104.652344 92.863281 102.84375 96.046875 102.304688 C 99.902344 101.652344 102.714844 103.527344 103.222656 107.09375 C 103.625 109.917969 102.644531 113.335938 100.328125 117.164062 C 99.183594 119.058594 96.75 122.398438 96.515625 122.398438 C 96.460938 122.398438 96.027344 122.371094 95.554688 122.339844 C 89.222656 121.902344 87.269531 122.136719 85.9375 123.496094 C 84.804688 124.652344 84.539062 126.425781 84.832031 130.90625 C 85.050781 134.230469 85.339844 135.066406 86.28125 135.066406 C 86.847656 135.066406 87.328125 134.707031 88.554688 133.375 C 88.742188 133.171875 88.972656 132.921875 89.066406 132.824219 C 89.238281 132.636719 90.574219 131.117188 91.050781 130.566406 C 91.199219 130.394531 91.566406 129.972656 91.867188 129.625 C 92.171875 129.277344 92.535156 128.859375 92.679688 128.695312 C 92.902344 128.4375 94.296875 126.8125 94.730469 126.304688 C 95.320312 125.613281 96.414062 124.296875 96.914062 123.683594 L 97.097656 123.457031 L 100.128906 123.675781 C 119.039062 125.027344 131.265625 126.277344 137.796875 127.527344 C 138.886719 127.738281 141.03125 128.207031 141.34375 128.308594 C 141.394531 128.324219 141.398438 128.292969 141.398438 127.789062 L 141.398438 127.25 L 141.003906 127.15625 C 136.800781 126.15625 131.792969 125.441406 122.304688 124.492188 C 115.6875 123.832031 107.824219 123.1875 99.335938 122.605469 C 97.789062 122.5 97.863281 122.511719 97.917969 122.433594 C 97.941406 122.402344 98.242188 122 98.589844 121.542969 C 102.589844 116.238281 104.3125 112.253906 104.3125 108.296875 C 104.316406 102.632812 99.910156 99.84375 93.96875 101.75 C 91.964844 102.390625 89.734375 103.792969 88.507812 105.175781 C 88.460938 105.230469 88.3125 105.398438 88.179688 105.546875 C 88.046875 105.695312 87.886719 105.886719 87.820312 105.976562 C 87.65625 106.191406 87.65625 106.449219 87.835938 103.4375 C 87.917969 102.09375 87.984375 100.605469 87.984375 100.199219 C 87.984375 99.699219 87.984375 99.695312 88.195312 99.628906 C 89.328125 99.273438 92.613281 96.617188 94.097656 94.859375 C 96.609375 91.882812 97.152344 87.9375 95.5625 84.210938 C 94.792969 82.410156 93.589844 80.769531 90.902344 77.851562 C 89.152344 75.953125 88.195312 74.636719 87.585938 73.277344 C 87.269531 72.574219 87.234375 72.449219 87.191406 71.820312 C 87.132812 70.996094 87.039062 70.832031 86.617188 70.816406 C 86.476562 70.8125 86.363281 70.824219 86.324219 70.84375 M 88.179688 90.410156 C 88.488281 90.554688 88.820312 91.054688 88.984375 91.632812 C 89.410156 93.117188 89.144531 94.949219 88.1875 97.113281 L 88 97.53125 L 87.964844 96.84375 C 87.921875 96.019531 87.871094 95.4375 87.714844 93.988281 C 87.503906 91.988281 87.476562 91.398438 87.578125 90.9375 C 87.691406 90.421875 87.871094 90.265625 88.179688 90.410156 M 92.621094 123.175781 C 93.21875 123.207031 94.90625 123.304688 95.550781 123.351562 L 95.832031 123.371094 L 95.597656 123.65625 C 95.46875 123.8125 95.300781 124.015625 95.222656 124.105469 C 95.148438 124.195312 94.871094 124.523438 94.609375 124.835938 C 94.347656 125.148438 93.96875 125.601562 93.765625 125.839844 C 92.921875 126.824219 92.773438 126.996094 92.5625 127.242188 C 92.4375 127.386719 92.261719 127.585938 92.171875 127.691406 C 92.082031 127.796875 91.90625 128 91.785156 128.140625 C 91.660156 128.285156 91.492188 128.480469 91.40625 128.578125 C 91.320312 128.675781 91.007812 129.039062 90.707031 129.382812 C 90.40625 129.726562 90.082031 130.097656 89.992188 130.203125 C 87.933594 132.59375 86.578125 134.003906 86.34375 134.003906 C 85.984375 134.003906 85.570312 128.496094 85.789062 126.585938 C 86.0625 124.195312 87.0625 123.351562 89.855469 123.167969 C 90.21875 123.144531 92.035156 123.148438 92.621094 123.175781 " fill-opacity="1" fill-rule="evenodd"/></g><g transform="matrix(1, 0, 0, 1, 5, 10)"><g clip-path="url(#9311a762ee)"><g clip-path="url(#171b6192b0)"><g clip-path="url(#9a19ecc276)"><path stroke-linecap="butt" transform="matrix(0.773474, 0, 0, 0.773474, 11.401743, 12.662737)" fill="none" stroke-linejoin="miter" d="M 92.860081 0.00171401 C 41.574595 0.00171401 0.000776533 41.575532 0.000776533 92.861019 C 0.000776533 144.146505 41.574595 185.720324 92.860081 185.720324 C 144.145568 185.720324 185.719386 144.146505 185.719386 92.861019 C 185.719386 41.575532 144.145568 0.00171401 92.860081 0.00171401 Z M 92.860081 0.00171401 " stroke="#c5a85c" stroke-width="1.934146" stroke-opacity="1" stroke-miterlimit="4"/></g></g><g clip-path="url(#75ba1c0f0b)"><g transform="matrix(1, 0, 0, 1, -0.000000000000000888, 39)"><g clip-path="url(#42236a838f)"><path fill="#f0f0ef" d="M 3.300781 16.234375 L 8.335938 5.945312 C 8.984375 4.617188 10.132812 3.601562 11.53125 3.121094 C 12.929688 2.640625 14.460938 2.738281 15.789062 3.386719 L 25.796875 8.285156 C 27.125 8.933594 28.140625 10.082031 28.621094 11.480469 C 29.101562 12.878906 29.003906 14.410156 28.355469 15.738281 L 23.320312 26.027344 C 21.96875 28.792969 18.632812 29.9375 15.867188 28.585938 L 5.855469 23.6875 C 3.09375 22.335938 1.949219 18.996094 3.300781 16.234375 Z M 3.300781 16.234375 " fill-opacity="1" fill-rule="nonzero"/><g fill="#000000" fill-opacity="1"><g transform="translate(18.795245, 19.000726)"><g><path d="M 0.375 -0.890625 C 0.21875 -0.835938 0.0625 -0.847656 -0.09375 -0.921875 C -0.25 -0.992188 -0.359375 -1.113281 -0.421875 -1.28125 C -0.484375 -1.445312 -0.472656 -1.601562 -0.390625 -1.75 C -0.316406 -1.90625 -0.195312 -2.007812 -0.03125 -2.0625 C 0.132812 -2.125 0.296875 -2.117188 0.453125 -2.046875 C 0.609375 -1.972656 0.710938 -1.847656 0.765625 -1.671875 C 0.816406 -1.503906 0.800781 -1.34375 0.71875 -1.1875 C 0.644531 -1.039062 0.53125 -0.941406 0.375 -0.890625 Z M 0.375 -0.890625 "/></g></g></g></g></g></g><g transform="matrix(1, 0, 0, 1, 134, 37)"><g clip-path="url(#0a4897000b)"><path fill="#f0f0ef" d="M 20.433594 4.46875 L 28.769531 12.328125 C 29.84375 13.339844 30.472656 14.738281 30.519531 16.214844 C 30.5625 17.695312 30.015625 19.128906 29.003906 20.203125 L 21.363281 28.3125 C 20.347656 29.390625 18.949219 30.019531 17.472656 30.0625 C 15.996094 30.105469 14.5625 29.5625 13.484375 28.546875 L 5.148438 20.691406 C 2.910156 18.582031 2.804688 15.054688 4.914062 12.816406 L 12.554688 4.703125 C 14.667969 2.464844 18.191406 2.359375 20.433594 4.46875 Z M 20.433594 4.46875 " fill-opacity="1" fill-rule="nonzero"/><g fill="#000000" fill-opacity="1"><g transform="translate(13.200546, 18.450603)"><g><path d="M 0.734375 0.609375 C 0.722656 0.441406 0.773438 0.296875 0.890625 0.171875 C 1.015625 0.046875 1.160156 -0.015625 1.328125 -0.015625 C 1.503906 -0.0234375 1.65625 0.0234375 1.78125 0.140625 C 1.90625 0.265625 1.972656 0.410156 1.984375 0.578125 C 1.992188 0.753906 1.9375 0.90625 1.8125 1.03125 C 1.695312 1.15625 1.550781 1.21875 1.375 1.21875 C 1.207031 1.226562 1.0625 1.171875 0.9375 1.046875 C 0.8125 0.929688 0.742188 0.785156 0.734375 0.609375 Z M 0.734375 0.609375 "/></g></g></g></g></g><g clip-path="url(#360e32f6b6)"><g transform="matrix(1, 0, 0, 1, 58, 128)"><g clip-path="url(#0b714bb0f9)"><path fill="#f0f0ef" d="M 78.460938 8.292969 C 78.730469 8.621094 78.925781 8.988281 79.050781 9.394531 C 79.175781 9.804688 79.21875 10.21875 79.179688 10.640625 C 79.140625 11.066406 79.023438 11.46875 78.828125 11.84375 C 78.632812 12.222656 78.371094 12.546875 78.046875 12.824219 C 75.507812 14.8125 72.867188 16.652344 70.117188 18.335938 C 67.367188 20.023438 64.53125 21.546875 61.605469 22.90625 C 58.683594 24.261719 55.691406 25.449219 52.628906 26.464844 C 49.566406 27.476562 46.460938 28.3125 43.300781 28.96875 C 40.144531 29.621094 36.960938 30.09375 33.75 30.382812 C 30.535156 30.671875 27.320312 30.773438 24.09375 30.691406 C 20.871094 30.609375 17.664062 30.34375 14.472656 29.890625 C 11.277344 29.441406 8.121094 28.804688 5.003906 27.992188 C 4.59375 27.867188 4.226562 27.671875 3.894531 27.402344 C 3.566406 27.132812 3.296875 26.8125 3.09375 26.441406 C 2.890625 26.066406 2.765625 25.667969 2.714844 25.246094 C 2.667969 24.824219 2.703125 24.40625 2.816406 23.996094 L 4.703125 17.777344 C 4.820312 17.355469 5.015625 16.972656 5.289062 16.628906 C 5.558594 16.289062 5.886719 16.011719 6.269531 15.800781 C 6.652344 15.589844 7.0625 15.460938 7.496094 15.414062 C 7.933594 15.371094 8.359375 15.410156 8.777344 15.539062 C 11.378906 16.199219 14.007812 16.710938 16.667969 17.070312 C 19.324219 17.433594 21.996094 17.644531 24.679688 17.703125 C 27.359375 17.761719 30.039062 17.667969 32.710938 17.421875 C 35.382812 17.179688 38.03125 16.785156 40.660156 16.238281 C 43.285156 15.691406 45.875 15 48.421875 14.160156 C 50.972656 13.320312 53.464844 12.339844 55.902344 11.21875 C 58.339844 10.097656 60.703125 8.839844 63 7.453125 C 65.292969 6.0625 67.503906 4.546875 69.625 2.902344 C 69.960938 2.621094 70.335938 2.414062 70.75 2.28125 C 71.167969 2.152344 71.59375 2.105469 72.03125 2.144531 C 72.464844 2.1875 72.875 2.308594 73.261719 2.515625 C 73.648438 2.722656 73.980469 2.996094 74.253906 3.335938 Z M 78.460938 8.292969 " fill-opacity="1" fill-rule="nonzero"/><g fill="#ffffff" fill-opacity="1"><g transform="translate(8.234236, 24.184709)"><g><path d="M 1.6875 -2.078125 L 3.03125 -1.78125 L 2.96875 -1.53125 L 1.625 -1.828125 L 1.1875 0.25 L 0.5625 0.125 L 1.453125 -4.078125 L 3.953125 -3.546875 L 3.875 -3.140625 L 2.71875 -3.5625 C 2.507812 -3.613281 2.273438 -3.628906 2.015625 -3.609375 Z M 1.6875 -2.078125 "/></g></g></g><g fill="#ffffff" fill-opacity="1"><g transform="translate(12.456908, 25.074374)"><g><path d="M 3.15625 -3.953125 C 3.71875 -3.867188 4.148438 -3.617188 4.453125 -3.203125 C 4.753906 -2.785156 4.859375 -2.25 4.765625 -1.59375 C 4.703125 -1.175781 4.570312 -0.820312 4.375 -0.53125 C 4.1875 -0.238281 3.960938 -0.0234375 3.703125 0.109375 C 3.203125 0.378906 2.671875 0.472656 2.109375 0.390625 C 1.554688 0.304688 1.128906 0.0546875 0.828125 -0.359375 C 0.523438 -0.785156 0.421875 -1.328125 0.515625 -1.984375 C 0.566406 -2.316406 0.660156 -2.613281 0.796875 -2.875 C 0.929688 -3.132812 1.085938 -3.335938 1.265625 -3.484375 C 1.441406 -3.628906 1.644531 -3.742188 1.875 -3.828125 C 2.289062 -3.984375 2.71875 -4.023438 3.15625 -3.953125 Z M 1.328125 -0.53125 C 1.410156 -0.34375 1.535156 -0.179688 1.703125 -0.046875 C 1.878906 0.078125 2.085938 0.15625 2.328125 0.1875 C 2.578125 0.226562 2.8125 0.203125 3.03125 0.109375 C 3.25 0.015625 3.425781 -0.117188 3.5625 -0.296875 C 3.820312 -0.679688 3.988281 -1.101562 4.0625 -1.5625 C 4.144531 -2.132812 4.101562 -2.609375 3.9375 -2.984375 C 3.738281 -3.398438 3.347656 -3.65625 2.765625 -3.75 C 2.328125 -3.65625 1.972656 -3.445312 1.703125 -3.125 C 1.429688 -2.8125 1.265625 -2.429688 1.203125 -1.984375 C 1.117188 -1.429688 1.160156 -0.945312 1.328125 -0.53125 Z M 1.328125 -0.53125 "/></g></g></g><g fill="#ffffff" fill-opacity="1"><g transform="translate(18.317729, 25.885695)"><g><path d="M 4.078125 -4 L 3.890625 -1.375 C 3.859375 -0.976562 3.796875 -0.679688 3.703125 -0.484375 C 3.648438 -0.398438 3.578125 -0.300781 3.484375 -0.1875 C 3.390625 -0.0703125 3.285156 0.0078125 3.171875 0.0625 C 2.890625 0.207031 2.53125 0.265625 2.09375 0.234375 C 1.019531 0.148438 0.523438 -0.441406 0.609375 -1.546875 L 0.796875 -4.25 L 1.46875 -4.1875 L 1.265625 -1.4375 C 1.253906 -1.3125 1.242188 -1.207031 1.234375 -1.125 C 1.234375 -1.050781 1.25 -0.941406 1.28125 -0.796875 C 1.3125 -0.648438 1.359375 -0.53125 1.421875 -0.4375 C 1.492188 -0.351562 1.601562 -0.269531 1.75 -0.1875 C 1.90625 -0.101562 2.085938 -0.0507812 2.296875 -0.03125 C 3.097656 0.03125 3.53125 -0.375 3.59375 -1.25 L 3.796875 -4.015625 Z M 4.078125 -4 "/></g></g></g><g fill="#ffffff" fill-opacity="1"><g transform="translate(23.776296, 26.254444)"><g><path d="M 3.859375 0.09375 L 3.75 0.09375 L 0.90625 -3.484375 L 0.890625 -3.484375 L 0.875 0 L 0.578125 0 L 0.59375 -4.296875 L 1.078125 -4.296875 L 3.546875 -1.15625 L 3.5625 -1.15625 L 3.578125 -4.28125 L 3.875 -4.28125 Z M 3.859375 0.09375 "/></g></g></g><g fill="#ffffff" fill-opacity="1"><g transform="translate(29.420896, 26.240816)"><g><path d="M 0.578125 -0.03125 L 0.296875 -4.3125 L 1.53125 -4.40625 C 2.039062 -4.4375 2.507812 -4.363281 2.9375 -4.1875 C 3.15625 -4.082031 3.351562 -3.953125 3.53125 -3.796875 C 3.707031 -3.640625 3.851562 -3.4375 3.96875 -3.1875 C 4.082031 -2.9375 4.148438 -2.648438 4.171875 -2.328125 C 4.203125 -1.867188 4.113281 -1.472656 3.90625 -1.140625 C 3.53125 -0.523438 2.875 -0.1875 1.9375 -0.125 Z M 1.796875 -0.34375 C 2.335938 -0.375 2.765625 -0.566406 3.078125 -0.921875 C 3.390625 -1.273438 3.523438 -1.765625 3.484375 -2.390625 C 3.453125 -2.867188 3.289062 -3.269531 3 -3.59375 C 2.71875 -3.914062 2.363281 -4.113281 1.9375 -4.1875 C 1.5625 -4.164062 1.234375 -4.101562 0.953125 -4 L 1.203125 -0.359375 C 1.347656 -0.328125 1.546875 -0.320312 1.796875 -0.34375 Z M 1.796875 -0.34375 "/></g></g></g><g fill="#ffffff" fill-opacity="1"><g transform="translate(35.205652, 25.799734)"><g><path d="M 0.0625 -0.015625 L 1.375 -4.625 L 1.46875 -4.640625 L 4 -0.546875 L 3.28125 -0.453125 L 2.640625 -1.546875 L 0.71875 -1.28125 L 0.421875 -0.0625 Z M 0.796875 -1.546875 L 2.5 -1.78125 L 1.359375 -3.734375 Z M 0.796875 -1.546875 "/></g></g></g><g fill="#ffffff" fill-opacity="1"><g transform="translate(40.42288, 25.033647)"><g><path d="M 2 -0.40625 L 1.390625 -0.28125 L 0.59375 -4.1875 C 0.445312 -4.195312 0.304688 -4.1875 0.171875 -4.15625 L -0.65625 -3.78125 L -0.78125 -4.234375 L 2.5 -4.890625 L 2.546875 -4.4375 L 1.65625 -4.46875 C 1.507812 -4.4375 1.359375 -4.382812 1.203125 -4.3125 Z M 2 -0.40625 "/></g></g></g><g fill="#ffffff" fill-opacity="1"><g transform="translate(44.951787, 24.069691)"><g><path d="M 0.109375 -4.46875 L 1.15625 -0.296875 L 0.5625 -0.140625 L -0.484375 -4.3125 Z M 0.109375 -4.46875 "/></g></g></g><g fill="#ffffff" fill-opacity="1"><g transform="translate(47.802718, 23.359412)"><g><path d="M 1.140625 -4.9375 C 1.671875 -5.101562 2.164062 -5.0625 2.625 -4.8125 C 3.082031 -4.570312 3.410156 -4.132812 3.609375 -3.5 C 3.734375 -3.09375 3.769531 -2.71875 3.71875 -2.375 C 3.675781 -2.03125 3.566406 -1.738281 3.390625 -1.5 C 3.046875 -1.039062 2.601562 -0.726562 2.0625 -0.5625 C 1.53125 -0.394531 1.035156 -0.4375 0.578125 -0.6875 C 0.117188 -0.9375 -0.207031 -1.375 -0.40625 -2 C -0.507812 -2.332031 -0.550781 -2.644531 -0.53125 -2.9375 C -0.507812 -3.226562 -0.453125 -3.476562 -0.359375 -3.6875 C -0.265625 -3.90625 -0.132812 -4.097656 0.03125 -4.265625 C 0.34375 -4.578125 0.710938 -4.800781 1.140625 -4.9375 Z M 0.953125 -1.078125 C 1.117188 -0.929688 1.304688 -0.835938 1.515625 -0.796875 C 1.722656 -0.753906 1.945312 -0.769531 2.1875 -0.84375 C 2.425781 -0.914062 2.617188 -1.039062 2.765625 -1.21875 C 2.921875 -1.394531 3.023438 -1.59375 3.078125 -1.8125 C 3.160156 -2.269531 3.128906 -2.71875 2.984375 -3.15625 C 2.816406 -3.707031 2.570312 -4.117188 2.25 -4.390625 C 1.894531 -4.691406 1.4375 -4.753906 0.875 -4.578125 C 0.507812 -4.316406 0.273438 -3.976562 0.171875 -3.5625 C 0.0664062 -3.15625 0.0820312 -2.734375 0.21875 -2.296875 C 0.382812 -1.765625 0.628906 -1.359375 0.953125 -1.078125 Z M 0.953125 -1.078125 "/></g></g></g><g fill="#ffffff" fill-opacity="1"><g transform="translate(53.438349, 21.550479)"><g><path d="M 3.625 -1.34375 L 3.515625 -1.296875 L -0.453125 -3.5625 L -0.46875 -3.5625 L 0.8125 -0.328125 L 0.53125 -0.21875 L -1.046875 -4.21875 L -0.59375 -4.390625 L 2.875 -2.390625 L 2.890625 -2.40625 L 1.734375 -5.3125 L 2.015625 -5.421875 Z M 3.625 -1.34375 "/></g></g></g><g fill="#ffffff" fill-opacity="1"><g transform="translate(58.626913, 19.434649)"><g/></g></g><g fill="#ffffff" fill-opacity="1"><g transform="translate(61.164184, 18.281705)"><g><path d="M 1.375 -5.5625 L 2.59375 -3.21875 C 2.78125 -2.863281 2.882812 -2.578125 2.90625 -2.359375 C 2.90625 -2.253906 2.894531 -2.128906 2.875 -1.984375 C 2.851562 -1.847656 2.804688 -1.726562 2.734375 -1.625 C 2.554688 -1.34375 2.273438 -1.101562 1.890625 -0.90625 C 0.941406 -0.40625 0.210938 -0.644531 -0.296875 -1.625 L -1.546875 -4.03125 L -0.953125 -4.34375 L 0.328125 -1.890625 C 0.378906 -1.773438 0.421875 -1.679688 0.453125 -1.609375 C 0.492188 -1.546875 0.566406 -1.457031 0.671875 -1.34375 C 0.773438 -1.238281 0.878906 -1.164062 0.984375 -1.125 C 1.085938 -1.082031 1.222656 -1.066406 1.390625 -1.078125 C 1.566406 -1.085938 1.75 -1.140625 1.9375 -1.234375 C 2.65625 -1.609375 2.8125 -2.179688 2.40625 -2.953125 L 1.125 -5.421875 Z M 1.375 -5.5625 "/></g></g></g><g fill="#ffffff" fill-opacity="1"><g transform="translate(65.984988, 15.720072)"><g><path d="M -0.953125 -3.59375 C -0.847656 -3.425781 -0.6875 -3.3125 -0.46875 -3.25 C -0.257812 -3.1875 -0.0351562 -3.15625 0.203125 -3.15625 C 0.453125 -3.164062 0.703125 -3.171875 0.953125 -3.171875 C 1.203125 -3.171875 1.4375 -3.128906 1.65625 -3.046875 C 1.882812 -2.960938 2.0625 -2.828125 2.1875 -2.640625 C 2.363281 -2.335938 2.394531 -2.019531 2.28125 -1.6875 C 2.175781 -1.363281 1.9375 -1.085938 1.5625 -0.859375 C 1.1875 -0.628906 0.765625 -0.46875 0.296875 -0.375 L 0.140625 -0.65625 C 0.628906 -0.695312 1.003906 -0.796875 1.265625 -0.953125 C 1.535156 -1.117188 1.703125 -1.304688 1.765625 -1.515625 C 1.835938 -1.734375 1.804688 -1.957031 1.671875 -2.1875 C 1.578125 -2.34375 1.425781 -2.445312 1.21875 -2.5 C 1.019531 -2.550781 0.804688 -2.570312 0.578125 -2.5625 C 0.347656 -2.550781 0.117188 -2.539062 -0.109375 -2.53125 C -0.347656 -2.53125 -0.570312 -2.570312 -0.78125 -2.65625 C -1 -2.738281 -1.171875 -2.890625 -1.296875 -3.109375 C -1.429688 -3.328125 -1.460938 -3.585938 -1.390625 -3.890625 C -1.316406 -4.191406 -1.082031 -4.460938 -0.6875 -4.703125 C -0.4375 -4.859375 -0.0820312 -4.988281 0.375 -5.09375 L 0.53125 -4.6875 C -0.09375 -4.601562 -0.582031 -4.453125 -0.9375 -4.234375 C -1.082031 -4.023438 -1.085938 -3.8125 -0.953125 -3.59375 Z M -0.953125 -3.59375 "/></g></g></g><g fill="#ffffff" fill-opacity="1"><g transform="translate(70.076551, 13.209288)"><g><path d="M 0.046875 -0.03125 L -0.875 -4.765625 L -0.796875 -4.8125 L 3.3125 -2.296875 L 2.71875 -1.890625 L 1.65625 -2.578125 L 0.0625 -1.484375 L 0.34375 -0.234375 Z M 0.015625 -1.75 L 1.421875 -2.71875 L -0.46875 -3.953125 Z M 0.015625 -1.75 "/></g></g></g></g></g></g><g clip-path="url(#dc768853a9)"><g transform="matrix(1, 0, 0, 1, 20, -0.000000000000001776)"><g clip-path="url(#f5f40e9636)"><g clip-path="url(#4ef6fc0061)"><path fill="#f0f0ef" d="M 2.910156 27.769531 C 2.632812 27.347656 2.394531 26.902344 2.203125 26.433594 C 2.007812 25.96875 1.859375 25.484375 1.761719 24.988281 C 1.660156 24.492188 1.605469 23.992188 1.601562 23.488281 C 1.597656 22.980469 1.640625 22.476562 1.734375 21.980469 C 1.824219 21.484375 1.964844 21 2.148438 20.527344 C 2.335938 20.054688 2.5625 19.609375 2.835938 19.179688 C 3.105469 18.753906 3.417969 18.355469 3.765625 17.988281 C 4.113281 17.621094 4.492188 17.289062 4.90625 16.996094 C 7.097656 15.652344 9.335938 14.386719 11.617188 13.199219 C 13.898438 12.011719 16.21875 10.902344 18.578125 9.875 C 20.933594 8.847656 23.324219 7.898438 25.75 7.035156 C 28.171875 6.175781 30.621094 5.394531 33.097656 4.703125 C 35.574219 4.007812 38.074219 3.398438 40.59375 2.878906 C 43.113281 2.359375 45.644531 1.925781 48.195312 1.578125 C 50.742188 1.230469 53.300781 0.972656 55.867188 0.804688 C 58.433594 0.636719 61.003906 0.554688 63.574219 0.5625 C 66.148438 0.570312 68.71875 0.667969 71.28125 0.851562 C 73.847656 1.039062 76.40625 1.3125 78.953125 1.671875 C 81.5 2.035156 84.027344 2.484375 86.546875 3.023438 C 89.0625 3.558594 91.554688 4.183594 94.027344 4.890625 C 96.5 5.601562 98.945312 6.394531 101.363281 7.273438 C 103.78125 8.152344 106.164062 9.109375 108.515625 10.152344 C 110.867188 11.195312 113.179688 12.320312 115.453125 13.523438 C 117.726562 14.726562 119.957031 16.003906 122.144531 17.363281 C 122.554688 17.660156 122.929688 17.992188 123.277344 18.359375 C 123.625 18.730469 123.929688 19.128906 124.199219 19.558594 C 124.46875 19.988281 124.695312 20.4375 124.878906 20.910156 C 125.058594 21.382812 125.195312 21.867188 125.285156 22.367188 C 125.375 22.863281 125.414062 23.367188 125.40625 23.871094 C 125.398438 24.378906 125.34375 24.878906 125.238281 25.375 C 125.136719 25.871094 124.984375 26.351562 124.789062 26.816406 C 124.589844 27.285156 124.351562 27.726562 124.070312 28.148438 L 114.824219 40.929688 C 114.53125 41.378906 114.199219 41.792969 113.824219 42.171875 C 113.449219 42.554688 113.039062 42.890625 112.59375 43.1875 C 112.148438 43.484375 111.679688 43.734375 111.183594 43.933594 C 110.691406 44.136719 110.179688 44.285156 109.65625 44.382812 C 109.128906 44.480469 108.601562 44.527344 108.066406 44.515625 C 107.53125 44.503906 107.003906 44.441406 106.484375 44.324219 C 105.960938 44.207031 105.457031 44.039062 104.972656 43.820312 C 104.484375 43.601562 104.023438 43.335938 103.589844 43.023438 C 100.558594 41.253906 97.425781 39.695312 94.1875 38.335938 C 90.953125 36.980469 87.640625 35.84375 84.253906 34.921875 C 80.867188 34.003906 77.433594 33.308594 73.957031 32.839844 C 70.480469 32.367188 66.988281 32.128906 63.476562 32.117188 C 59.96875 32.105469 56.472656 32.324219 52.992188 32.773438 C 49.511719 33.222656 46.078125 33.894531 42.683594 34.792969 C 39.292969 35.695312 35.972656 36.8125 32.730469 38.144531 C 29.484375 39.480469 26.339844 41.023438 23.296875 42.773438 C 22.863281 43.082031 22.402344 43.34375 21.914062 43.5625 C 21.425781 43.777344 20.917969 43.941406 20.398438 44.058594 C 19.875 44.171875 19.347656 44.230469 18.8125 44.238281 C 18.277344 44.242188 17.75 44.195312 17.226562 44.097656 C 16.699219 43.996094 16.191406 43.84375 15.699219 43.636719 C 15.203125 43.433594 14.738281 43.179688 14.292969 42.882812 C 13.851562 42.582031 13.445312 42.242188 13.070312 41.859375 C 12.699219 41.476562 12.367188 41.0625 12.078125 40.613281 Z M 2.910156 27.769531 " fill-opacity="1" fill-rule="nonzero"/></g><g fill="#fffff2" fill-opacity="1"><g transform="translate(18.920442, 30.607635)"><g><path d="M 3.765625 -1.765625 L 0.5 -0.234375 L -4.25 -10.3125 L -0.984375 -11.84375 C -0.304688 -12.164062 0.394531 -12.335938 1.125 -12.359375 C 1.851562 -12.390625 2.550781 -12.28125 3.21875 -12.03125 C 3.894531 -11.789062 4.507812 -11.425781 5.0625 -10.9375 C 5.613281 -10.445312 6.050781 -9.851562 6.375 -9.15625 C 6.707031 -8.457031 6.882812 -7.738281 6.90625 -7 C 6.9375 -6.269531 6.832031 -5.566406 6.59375 -4.890625 C 6.351562 -4.222656 5.988281 -3.613281 5.5 -3.0625 C 5.019531 -2.519531 4.441406 -2.085938 3.765625 -1.765625 Z M -3.09375 -10.75 L 1.5625 -0.875 L 3.71875 -1.875 C 4.25 -2.132812 4.691406 -2.503906 5.046875 -2.984375 C 5.410156 -3.460938 5.664062 -4.015625 5.8125 -4.640625 C 5.957031 -5.265625 5.988281 -5.914062 5.90625 -6.59375 C 5.832031 -7.28125 5.632812 -7.96875 5.3125 -8.65625 C 5 -9.332031 4.597656 -9.921875 4.109375 -10.421875 C 3.628906 -10.921875 3.101562 -11.3125 2.53125 -11.59375 C 1.957031 -11.882812 1.367188 -12.046875 0.765625 -12.078125 C 0.160156 -12.117188 -0.40625 -12.007812 -0.9375 -11.75 Z M -3.09375 -10.75 "/></g></g></g><g fill="#fffff2" fill-opacity="1"><g transform="translate(30.141408, 25.463737)"><g><path d="M 2.9375 -7.375 C 3.5 -7.414062 3.992188 -7.316406 4.421875 -7.078125 C 4.847656 -6.847656 5.242188 -6.535156 5.609375 -6.140625 C 5.972656 -5.742188 6.328125 -5.34375 6.671875 -4.9375 C 6.992188 -4.550781 7.316406 -4.207031 7.640625 -3.90625 C 7.960938 -3.601562 8.285156 -3.375 8.609375 -3.21875 C 8.929688 -3.070312 9.253906 -3.050781 9.578125 -3.15625 L 9.609375 -3.03125 C 8.835938 -2.78125 8.1875 -2.6875 7.65625 -2.75 C 7.132812 -2.820312 6.703125 -2.992188 6.359375 -3.265625 C 6.015625 -3.546875 5.726562 -3.875 5.5 -4.25 C 5.269531 -4.632812 5.066406 -5.019531 4.890625 -5.40625 C 4.710938 -5.800781 4.515625 -6.15625 4.296875 -6.46875 C 4.085938 -6.78125 3.820312 -7.003906 3.5 -7.140625 C 3.1875 -7.273438 2.789062 -7.265625 2.3125 -7.109375 C 1.550781 -6.867188 0.828125 -7.046875 0.140625 -7.640625 C -0.265625 -7.960938 -0.625 -8.414062 -0.9375 -9 L 1.71875 -0.546875 L 0.515625 -0.171875 L -2.828125 -10.8125 L -0.171875 -11.640625 C 0.578125 -11.867188 1.273438 -12 1.921875 -12.03125 C 2.578125 -12.070312 3.144531 -11.972656 3.625 -11.734375 C 4.101562 -11.503906 4.4375 -11.097656 4.625 -10.515625 C 4.769531 -10.035156 4.785156 -9.59375 4.671875 -9.1875 C 4.554688 -8.78125 4.34375 -8.425781 4.03125 -8.125 C 3.726562 -7.832031 3.363281 -7.582031 2.9375 -7.375 Z M 3.421875 -10.140625 C 3.234375 -10.722656 2.953125 -11.140625 2.578125 -11.390625 C 2.203125 -11.640625 1.78125 -11.757812 1.3125 -11.75 C 0.84375 -11.75 0.359375 -11.671875 -0.140625 -11.515625 L -1.59375 -11.0625 L -1.296875 -10.125 C -1.128906 -9.582031 -0.910156 -9.113281 -0.640625 -8.71875 C -0.378906 -8.320312 -0.09375 -7.992188 0.21875 -7.734375 C 0.53125 -7.484375 0.863281 -7.304688 1.21875 -7.203125 C 1.582031 -7.109375 1.9375 -7.113281 2.28125 -7.21875 L 2.390625 -7.265625 C 2.859375 -7.441406 3.207031 -7.769531 3.4375 -8.25 C 3.664062 -8.726562 3.660156 -9.359375 3.421875 -10.140625 Z M 3.421875 -10.140625 "/></g></g></g><g fill="#fffff2" fill-opacity="1"><g transform="translate(42.468772, 21.875677)"><g/></g></g><g fill="#fffff2" fill-opacity="1"><g transform="translate(48.952456, 20.512661)"><g><path d="M 3.703125 -6.4375 C 3.367188 -6.40625 3.097656 -6.304688 2.890625 -6.140625 C 2.691406 -5.984375 2.535156 -5.8125 2.421875 -5.625 C 2.316406 -5.4375 2.242188 -5.285156 2.203125 -5.171875 C 1.960938 -4.472656 1.800781 -3.722656 1.71875 -2.921875 C 1.632812 -2.117188 1.640625 -1.203125 1.734375 -0.171875 L 0.546875 -0.046875 L -0.515625 -11.140625 L 0.671875 -11.265625 L 1.546875 -2.171875 C 1.578125 -3.160156 1.703125 -4.039062 1.921875 -4.8125 C 2.148438 -5.59375 2.453125 -6.328125 2.828125 -7.015625 C 3.210938 -7.703125 3.648438 -8.394531 4.140625 -9.09375 C 4.140625 -9.09375 4.179688 -9.164062 4.265625 -9.3125 C 4.359375 -9.457031 4.460938 -9.632812 4.578125 -9.84375 C 4.703125 -10.0625 4.804688 -10.289062 4.890625 -10.53125 C 4.972656 -10.769531 5.003906 -10.988281 4.984375 -11.1875 C 4.972656 -11.394531 4.878906 -11.546875 4.703125 -11.640625 L 7.3125 -11.890625 C 7.050781 -11.816406 6.789062 -11.6875 6.53125 -11.5 C 6.269531 -11.320312 6.03125 -11.128906 5.8125 -10.921875 C 5.59375 -10.710938 5.414062 -10.539062 5.28125 -10.40625 C 5.15625 -10.269531 5.085938 -10.203125 5.078125 -10.203125 C 4.546875 -9.441406 4.050781 -8.722656 3.59375 -8.046875 C 3.144531 -7.367188 2.769531 -6.65625 2.46875 -5.90625 C 2.582031 -6.0625 2.738281 -6.203125 2.9375 -6.328125 C 3.132812 -6.453125 3.382812 -6.53125 3.6875 -6.5625 C 4.238281 -6.613281 4.707031 -6.554688 5.09375 -6.390625 C 5.476562 -6.222656 5.804688 -5.984375 6.078125 -5.671875 C 6.359375 -5.359375 6.613281 -5.003906 6.84375 -4.609375 C 7.070312 -4.222656 7.289062 -3.832031 7.5 -3.4375 C 7.757812 -2.988281 8.007812 -2.582031 8.25 -2.21875 C 8.488281 -1.851562 8.75 -1.5625 9.03125 -1.34375 C 9.3125 -1.132812 9.632812 -1.046875 10 -1.078125 L 10.015625 -0.953125 C 9.203125 -0.878906 8.546875 -0.925781 8.046875 -1.09375 C 7.554688 -1.269531 7.164062 -1.519531 6.875 -1.84375 C 6.59375 -2.175781 6.382812 -2.554688 6.25 -2.984375 C 6.113281 -3.410156 5.992188 -3.835938 5.890625 -4.265625 C 5.785156 -4.691406 5.660156 -5.070312 5.515625 -5.40625 C 5.367188 -5.75 5.15625 -6.019531 4.875 -6.21875 C 4.601562 -6.414062 4.210938 -6.488281 3.703125 -6.4375 Z M 3.703125 -6.4375 "/></g></g></g><g fill="#fffff2" fill-opacity="1"><g transform="translate(61.655955, 19.475964)"><g><path d="M 2.203125 -11.09375 L 1.9375 -3.984375 C 1.914062 -3.328125 2.019531 -2.71875 2.25 -2.15625 C 2.476562 -1.59375 2.800781 -1.117188 3.21875 -0.734375 C 3.632812 -0.359375 4.117188 -0.113281 4.671875 0 C 5.234375 0.125 5.835938 0.0820312 6.484375 -0.125 C 7.253906 -0.363281 7.863281 -0.796875 8.3125 -1.421875 C 8.757812 -2.046875 9 -2.8125 9.03125 -3.71875 C 9.0625 -4.300781 9.078125 -4.929688 9.078125 -5.609375 C 9.085938 -6.296875 9.066406 -6.976562 9.015625 -7.65625 C 8.972656 -8.332031 8.890625 -8.953125 8.765625 -9.515625 C 8.640625 -10.078125 8.453125 -10.53125 8.203125 -10.875 L 9.4375 -10.828125 L 9.171875 -3.71875 C 9.140625 -2.84375 8.898438 -2.070312 8.453125 -1.40625 C 8.003906 -0.738281 7.359375 -0.269531 6.515625 0 C 5.796875 0.226562 5.082031 0.296875 4.375 0.203125 C 3.675781 0.109375 3.046875 -0.117188 2.484375 -0.484375 C 1.921875 -0.859375 1.472656 -1.347656 1.140625 -1.953125 C 0.816406 -2.554688 0.664062 -3.25 0.6875 -4.03125 L 0.953125 -11.140625 Z M 2.203125 -11.09375 "/></g></g></g><g fill="#fffff2" fill-opacity="1"><g transform="translate(73.352249, 20.010217)"><g><path d="M 11.84375 -9.28125 L 9.96875 1.703125 L 8.796875 1.5 L 10.609375 -9.109375 C 10.046875 -8.992188 9.539062 -8.726562 9.09375 -8.3125 C 8.644531 -7.90625 8.238281 -7.398438 7.875 -6.796875 C 7.519531 -6.203125 7.207031 -5.554688 6.9375 -4.859375 C 6.675781 -4.171875 6.445312 -3.472656 6.25 -2.765625 C 6.0625 -2.054688 5.894531 -1.378906 5.75 -0.734375 C 5.613281 -0.0976562 5.503906 0.453125 5.421875 0.921875 L 5.265625 0.890625 L 2.71875 -9.484375 L 2.453125 -10.59375 L 0.625 0.109375 L 0.546875 0.09375 L 2.421875 -10.890625 L 3.703125 -10.671875 L 5.84375 -1.859375 C 6.039062 -2.554688 6.265625 -3.273438 6.515625 -4.015625 C 6.773438 -4.765625 7.070312 -5.472656 7.40625 -6.140625 C 7.738281 -6.816406 8.125 -7.410156 8.5625 -7.921875 C 9.007812 -8.441406 9.503906 -8.828125 10.046875 -9.078125 C 10.585938 -9.328125 11.1875 -9.394531 11.84375 -9.28125 Z M 11.84375 -9.28125 "/></g></g></g><g fill="#fffff2" fill-opacity="1"><g transform="translate(85.927377, 22.317198)"><g><path d="M 7.84375 2.453125 L 7.421875 -2.15625 C 6.753906 -2.300781 6.179688 -2.335938 5.703125 -2.265625 C 5.234375 -2.191406 4.820312 -2.050781 4.46875 -1.84375 C 4.125 -1.644531 3.828125 -1.410156 3.578125 -1.140625 C 3.328125 -0.878906 3.097656 -0.628906 2.890625 -0.390625 C 2.640625 -0.0664062 2.390625 0.1875 2.140625 0.375 C 1.890625 0.570312 1.597656 0.613281 1.265625 0.5 C 1.234375 0.476562 1.203125 0.457031 1.171875 0.4375 C 1.140625 0.414062 1.101562 0.375 1.0625 0.3125 C 0.707031 0.0078125 0.675781 -0.476562 0.96875 -1.15625 C 1.101562 -1.46875 1.289062 -1.816406 1.53125 -2.203125 C 1.78125 -2.585938 2.066406 -2.992188 2.390625 -3.421875 C 2.890625 -4.054688 3.445312 -4.722656 4.0625 -5.421875 C 4.6875 -6.117188 5.328125 -6.789062 5.984375 -7.4375 C 6.640625 -8.09375 7.253906 -8.6875 7.828125 -9.21875 L 7.9375 -9.1875 L 9.109375 2.859375 Z M 7.40625 -2.28125 L 6.8125 -8.109375 C 6.070312 -7.367188 5.316406 -6.582031 4.546875 -5.75 C 3.773438 -4.914062 3.085938 -4.113281 2.484375 -3.34375 C 2.160156 -2.925781 1.878906 -2.523438 1.640625 -2.140625 C 1.398438 -1.765625 1.210938 -1.425781 1.078125 -1.125 C 0.960938 -0.8125 0.898438 -0.535156 0.890625 -0.296875 C 0.890625 -0.0546875 0.972656 0.113281 1.140625 0.21875 C 1.179688 0.25 1.210938 0.269531 1.234375 0.28125 C 1.253906 0.300781 1.285156 0.328125 1.328125 0.359375 C 1.617188 0.472656 1.875 0.4375 2.09375 0.25 C 2.3125 0.0703125 2.546875 -0.164062 2.796875 -0.46875 C 2.992188 -0.707031 3.222656 -0.960938 3.484375 -1.234375 C 3.742188 -1.503906 4.050781 -1.738281 4.40625 -1.9375 C 4.757812 -2.144531 5.175781 -2.285156 5.65625 -2.359375 C 6.144531 -2.441406 6.726562 -2.414062 7.40625 -2.28125 Z M 7.40625 -2.28125 "/></g></g></g><g fill="#fffff2" fill-opacity="1"><g transform="translate(97.550937, 26.088176)"><g><path d="M 7.15625 -3.453125 C 7.601562 -3.097656 7.898438 -2.6875 8.046875 -2.21875 C 8.203125 -1.75 8.273438 -1.25 8.265625 -0.71875 C 8.265625 -0.1875 8.257812 0.34375 8.25 0.875 C 8.238281 1.375 8.242188 1.84375 8.265625 2.28125 C 8.296875 2.726562 8.375 3.117188 8.5 3.453125 C 8.632812 3.785156 8.859375 4.023438 9.171875 4.171875 L 9.125 4.28125 C 8.382812 3.9375 7.84375 3.5625 7.5 3.15625 C 7.164062 2.757812 6.96875 2.34375 6.90625 1.90625 C 6.84375 1.476562 6.851562 1.039062 6.9375 0.59375 C 7.019531 0.15625 7.125 -0.269531 7.25 -0.6875 C 7.382812 -1.101562 7.476562 -1.492188 7.53125 -1.859375 C 7.582031 -2.222656 7.535156 -2.5625 7.390625 -2.875 C 7.253906 -3.195312 6.960938 -3.460938 6.515625 -3.671875 C 5.785156 -4.015625 5.363281 -4.628906 5.25 -5.515625 C 5.1875 -6.035156 5.234375 -6.613281 5.390625 -7.25 L 1.625 0.765625 L 0.5 0.234375 L 5.234375 -9.875 L 7.75 -8.703125 C 8.457031 -8.367188 9.0625 -7.988281 9.5625 -7.5625 C 10.0625 -7.144531 10.410156 -6.6875 10.609375 -6.1875 C 10.804688 -5.695312 10.773438 -5.179688 10.515625 -4.640625 C 10.296875 -4.171875 10.003906 -3.828125 9.640625 -3.609375 C 9.285156 -3.390625 8.894531 -3.269531 8.46875 -3.25 C 8.039062 -3.238281 7.601562 -3.304688 7.15625 -3.453125 Z M 9.390625 -5.171875 C 9.648438 -5.710938 9.722656 -6.203125 9.609375 -6.640625 C 9.492188 -7.078125 9.265625 -7.453125 8.921875 -7.765625 C 8.578125 -8.078125 8.171875 -8.347656 7.703125 -8.578125 L 6.3125 -9.21875 L 5.890625 -8.328125 C 5.640625 -7.804688 5.476562 -7.316406 5.40625 -6.859375 C 5.34375 -6.398438 5.34375 -5.960938 5.40625 -5.546875 C 5.457031 -5.148438 5.578125 -4.789062 5.765625 -4.46875 C 5.960938 -4.15625 6.226562 -3.921875 6.5625 -3.765625 L 6.65625 -3.71875 C 7.132812 -3.539062 7.625 -3.550781 8.125 -3.75 C 8.625 -3.945312 9.046875 -4.421875 9.390625 -5.171875 Z M 9.390625 -5.171875 "/></g></g></g></g></g></g><g clip-path="url(#dc4db03f10)"><path fill="#c5a85c" d="M 13.257812 52.035156 C 10.160156 48.304688 7.066406 44.570312 3.96875 40.835938 C 5.28125 39.359375 6.59375 37.882812 7.90625 36.40625 C 11.085938 38.746094 14.265625 41.082031 17.445312 43.421875 C 19.585938 43.644531 20.820312 45.085938 20.335938 48.835938 C 22.164062 49.359375 22.355469 49.015625 21.136719 50.3125 C 20.808594 53.835938 21.597656 53.636719 18.304688 53.636719 C 20.765625 57.535156 23.226562 61.433594 25.691406 65.328125 C 34.777344 74.292969 27.371094 74.640625 28.210938 79.296875 C 31.414062 92.28125 30.796875 104.28125 32.089844 116.773438 C 33.582031 119.882812 30.476562 121.867188 23.597656 122.925781 C 18.183594 123.132812 12.769531 123.335938 7.351562 123.542969 C 6.019531 120.34375 7.269531 119.417969 8.335938 118.742188 C 8.953125 100.445312 9.566406 82.148438 10.183594 63.851562 C 11.042969 60.667969 11.988281 57.597656 13.261719 54.992188 C 13.261719 54.003906 13.261719 53.019531 13.261719 52.035156 Z M 13.257812 52.035156 " fill-opacity="1" fill-rule="evenodd"/></g><g clip-path="url(#ae1c6caf48)"><path fill="#c5a85c" d="M 169.679688 68.011719 C 166.871094 67.617188 164.0625 67.21875 161.253906 66.820312 C 160 66.980469 158.746094 67.140625 157.492188 67.296875 C 157.242188 67.664062 156.988281 68.027344 156.734375 68.390625 C 157.160156 69.929688 157.589844 71.472656 158.019531 73.011719 C 157.703125 73.4375 157.382812 73.867188 157.066406 74.296875 C 162.199219 88.679688 169.507812 99.542969 176.394531 111.09375 C 174.910156 111.957031 175.214844 111.65625 175.824219 113.378906 C 168.222656 116.679688 167.644531 113.601562 163.707031 114.046875 C 160.152344 114.300781 157.621094 114.980469 154.066406 115.234375 C 154.019531 116.234375 153.1875 118.019531 153.140625 119.019531 C 153.957031 120.121094 155.070312 120.191406 154.972656 121.566406 C 152.972656 121.566406 150.972656 121.566406 148.972656 121.566406 C 149.058594 119.621094 149.828125 118.625 150.257812 117.617188 C 150.292969 116.964844 150.324219 116.316406 150.355469 115.664062 C 148.515625 115.679688 146.671875 115.695312 144.832031 115.710938 C 143.714844 116.570312 144.191406 118.210938 143.953125 118.640625 C 143.378906 119.304688 142.976562 118.332031 142.40625 118.996094 C 141.976562 119.757812 141.546875 120.519531 141.117188 121.28125 C 138.691406 121.28125 136.261719 121.28125 133.835938 121.28125 C 133.949219 120.003906 133.785156 119.710938 135.976562 119.710938 C 137.277344 119.609375 138.792969 118.457031 139.429688 117.140625 C 137.617188 117.054688 135.535156 117.1875 134.167969 116.402344 C 133.742188 117.371094 133.429688 118.339844 133.003906 119.304688 C 131.652344 118.722656 130.503906 118.25 129.359375 117.1875 C 128.851562 117.363281 128.34375 117.535156 127.835938 117.710938 C 126.25 116.824219 124.804688 115.625 123.21875 114.734375 C 123.671875 113.007812 122.234375 112.96875 120.078125 111.238281 C 121.792969 109.273438 122.410156 106.789062 124.839844 105.953125 C 131.121094 96.636719 137.40625 87.324219 143.691406 78.007812 C 144.292969 76.882812 144.261719 75.945312 143.59375 75.199219 C 142.816406 74.992188 142.039062 74.785156 141.261719 74.582031 C 141.367188 73.761719 141.46875 72.945312 141.570312 72.128906 C 141.375 71.953125 141.175781 71.78125 140.976562 71.605469 C 141.039062 70.464844 141.890625 68.914062 141.09375 67.773438 C 136.019531 67.667969 131.890625 65.996094 126.980469 65.605469 C 126.886719 63.386719 127.101562 61.570312 127.003906 59.347656 C 126.65625 59.09375 126.308594 58.839844 125.957031 58.585938 C 123.492188 58.585938 119.035156 55.136719 120.183594 53.960938 C 120.503906 53.632812 125.167969 54.949219 125.765625 55.15625 C 125.054688 48.96875 127.566406 55.175781 128.242188 57.15625 C 130.8125 58.523438 133.382812 59.886719 135.953125 61.25 C 137.542969 61.25 139.273438 61.523438 140.859375 61.523438 C 141.515625 60.984375 141.882812 60.992188 142.238281 60.789062 C 143.28125 60.800781 144.5625 60.917969 145.453125 61.203125 C 145.855469 60.863281 145.851562 59.816406 145.476562 59.0625 C 144.414062 58.9375 141.175781 56.558594 141.859375 54.683594 C 141.382812 54.492188 141.238281 54.253906 140.761719 54.0625 C 140.707031 51.476562 140.316406 48.9375 140.261719 46.351562 C 141.550781 45.015625 143.078125 44.230469 145.070312 44.542969 C 146.308594 46.84375 147.542969 49.144531 148.78125 51.445312 C 149.566406 52.773438 150.234375 54.085938 148.972656 55.160156 C 149.921875 58.691406 151.976562 60.355469 155.78125 59.0625 C 156.8125 59.460938 157.84375 59.855469 158.875 60.253906 C 160.414062 60.347656 161.953125 60.441406 163.492188 60.539062 C 166.175781 59.777344 168.855469 59.015625 171.539062 58.253906 C 174.433594 60.203125 175.796875 60.121094 175.992188 62.726562 C 176.101562 64.203125 175.84375 63.582031 174.917969 62.777344 C 173.964844 62.777344 174.167969 62.621094 173.679688 61.726562 C 173.144531 61.738281 172.984375 61.863281 172.25 61.074219 C 172.078125 61.675781 171.808594 62.457031 171.632812 63.0625 C 171.953125 64.464844 171.785156 64.328125 171.25 65.679688 C 171.546875 67.789062 171.75 67.304688 169.679688 68.011719 Z M 169.679688 68.011719 " fill-opacity="1" fill-rule="evenodd"/></g><path fill="#0097b2" d="M 81.421875 47.550781 C 81.117188 47.550781 80.816406 47.582031 80.515625 47.640625 C 80.214844 47.699219 79.925781 47.789062 79.644531 47.90625 C 79.363281 48.023438 79.09375 48.164062 78.84375 48.335938 C 78.589844 48.503906 78.355469 48.695312 78.140625 48.910156 C 77.921875 49.128906 77.730469 49.363281 77.5625 49.613281 C 77.390625 49.867188 77.25 50.136719 77.132812 50.417969 C 77.015625 50.699219 76.925781 50.988281 76.867188 51.289062 C 76.808594 51.585938 76.777344 51.890625 76.777344 52.195312 C 76.777344 52.5 76.808594 52.800781 76.867188 53.101562 C 76.925781 53.398438 77.015625 53.6875 77.132812 53.96875 C 77.25 54.253906 77.390625 54.519531 77.5625 54.773438 C 77.730469 55.027344 77.921875 55.261719 78.140625 55.476562 C 78.355469 55.691406 78.589844 55.882812 78.84375 56.054688 C 79.09375 56.222656 79.363281 56.367188 79.644531 56.484375 C 79.925781 56.597656 80.214844 56.6875 80.515625 56.746094 C 80.816406 56.804688 81.117188 56.835938 81.421875 56.835938 C 81.726562 56.835938 82.027344 56.804688 82.328125 56.746094 C 82.625 56.6875 82.917969 56.597656 83.199219 56.484375 C 83.480469 56.367188 83.746094 56.222656 84 56.054688 C 84.253906 55.882812 84.488281 55.691406 84.703125 55.476562 C 84.917969 55.261719 85.113281 55.027344 85.28125 54.773438 C 85.449219 54.519531 85.59375 54.253906 85.710938 53.96875 C 85.828125 53.6875 85.914062 53.398438 85.972656 53.101562 C 86.035156 52.800781 86.0625 52.5 86.0625 52.195312 C 86.0625 51.890625 86.035156 51.585938 85.972656 51.289062 C 85.914062 50.988281 85.828125 50.699219 85.710938 50.417969 C 85.59375 50.136719 85.449219 49.867188 85.28125 49.613281 C 85.113281 49.363281 84.917969 49.128906 84.703125 48.910156 C 84.488281 48.695312 84.253906 48.503906 84 48.335938 C 83.746094 48.164062 83.480469 48.023438 83.199219 47.90625 C 82.917969 47.789062 82.625 47.699219 82.328125 47.640625 C 82.027344 47.582031 81.726562 47.550781 81.421875 47.550781 Z M 85.09375 52.195312 C 85.097656 52.894531 84.910156 53.546875 84.539062 54.140625 L 81.894531 51.644531 L 81.894531 48.546875 C 82.335938 48.605469 82.753906 48.738281 83.148438 48.949219 C 83.542969 49.160156 83.886719 49.433594 84.179688 49.769531 C 84.476562 50.101562 84.699219 50.480469 84.859375 50.898438 C 85.015625 51.316406 85.09375 51.746094 85.09375 52.195312 Z M 80.941406 55.839844 C 80.164062 55.738281 79.492188 55.421875 78.917969 54.890625 L 80.941406 52.980469 Z M 81.894531 52.957031 L 83.929688 54.878906 C 83.355469 55.417969 82.675781 55.738281 81.894531 55.839844 Z M 80.945312 48.546875 L 80.945312 51.671875 L 78.3125 54.15625 C 78.148438 53.898438 78.015625 53.617188 77.921875 53.324219 C 77.828125 53.03125 77.769531 52.730469 77.75 52.421875 C 77.730469 52.113281 77.75 51.808594 77.808594 51.503906 C 77.867188 51.203125 77.960938 50.910156 78.09375 50.632812 C 78.222656 50.351562 78.386719 50.09375 78.582031 49.855469 C 78.78125 49.617188 79.003906 49.40625 79.25 49.222656 C 79.5 49.042969 79.769531 48.894531 80.054688 48.777344 C 80.34375 48.664062 80.640625 48.585938 80.945312 48.546875 Z M 80.945312 48.546875 " fill-opacity="1" fill-rule="nonzero"/><g clip-path="url(#e773983186)"><path fill="#338dc9" d="M 92.964844 54.363281 C 93.007812 54.65625 93.0625 54.941406 93.089844 55.234375 C 93.105469 55.429688 93.222656 55.5 93.378906 55.527344 C 93.796875 55.609375 94.183594 55.53125 94.539062 55.300781 C 94.988281 55.023438 95.394531 54.695312 95.757812 54.308594 C 96.878906 53.191406 98.226562 52.425781 99.65625 51.785156 C 100.203125 51.539062 100.757812 51.320312 101.3125 51.097656 C 101.863281 50.875 102.472656 50.683594 103.0625 50.503906 C 104.402344 50.089844 105.640625 49.464844 106.769531 48.636719 C 107.265625 48.277344 107.742188 47.894531 108.21875 47.515625 C 108.339844 47.238281 108.558594 47.03125 108.730469 46.789062 C 109.109375 46.296875 109.398438 45.753906 109.59375 45.164062 C 109.664062 44.941406 109.679688 44.710938 109.636719 44.476562 C 109.527344 43.871094 109.085938 43.664062 108.542969 43.960938 C 108.175781 44.175781 107.839844 44.425781 107.53125 44.714844 C 107.488281 44.75 107.445312 44.78125 107.398438 44.8125 C 107.394531 44.816406 107.394531 44.820312 107.390625 44.824219 C 107.390625 44.824219 107.382812 44.824219 107.382812 44.824219 L 107.402344 44.816406 C 107.5 44.578125 107.710938 44.425781 107.855469 44.226562 C 108.296875 43.632812 108.746094 43.042969 109.015625 42.34375 C 109.085938 42.152344 109.121094 41.953125 109.117188 41.75 C 109.117188 41.371094 108.726562 41.046875 108.3125 41.074219 C 108.011719 41.109375 107.738281 41.210938 107.496094 41.382812 C 107.066406 41.667969 106.671875 41.996094 106.3125 42.367188 C 105.339844 43.335938 104.5625 44.46875 103.699219 45.527344 C 103.050781 46.339844 102.351562 47.109375 101.605469 47.832031 C 100.734375 48.621094 99.773438 49.273438 98.71875 49.789062 C 97.605469 50.351562 96.496094 50.921875 95.503906 51.6875 C 94.578125 52.402344 93.785156 53.246094 93.125 54.210938 C 93.097656 54.273438 93.070312 54.363281 92.964844 54.363281 Z M 92.964844 54.363281 " fill-opacity="1" fill-rule="nonzero"/></g><g clip-path="url(#586576c999)"><path fill="#c5a85c" d="M 86.128906 62.152344 C 86.804688 65.488281 91.910156 67.640625 92.839844 68.265625 C 93.488281 68.699219 93.742188 69.300781 93.789062 70.027344 C 93.875 71.421875 93.863281 72.828125 93.84375 74.222656 C 93.832031 75.1875 93.546875 78.964844 94.976562 78.957031 C 96.0625 79.101562 96.320312 76.226562 96.332031 75.355469 C 96.332031 74.941406 96.324219 74.523438 96.367188 74.109375 C 96.363281 74.035156 96.378906 73.964844 96.421875 73.902344 C 96.511719 74.148438 96.582031 74.402344 96.628906 74.664062 C 96.90625 75.710938 97.164062 76.769531 97.609375 77.769531 C 97.6875 77.945312 97.796875 78.097656 97.941406 78.226562 C 98.015625 78.304688 98.109375 78.335938 98.21875 78.324219 C 98.328125 78.308594 98.40625 78.253906 98.460938 78.15625 C 98.625 77.910156 98.632812 77.621094 98.640625 77.34375 C 98.664062 76.664062 98.523438 75.996094 98.445312 75.320312 C 98.414062 75.195312 98.414062 75.070312 98.445312 74.945312 C 98.574219 75.167969 98.6875 75.402344 98.785156 75.640625 C 99.109375 76.359375 100.425781 78.503906 101.070312 78.308594 C 101.714844 78.113281 101.09375 75.507812 99.910156 73.402344 C 101.398438 75.546875 102.300781 76.835938 102.886719 76.238281 C 103.230469 75.894531 102.074219 73.855469 101.625 73.171875 C 101.273438 72.636719 100.328125 71.4375 100.332031 71.355469 C 100.375 71.414062 102.257812 73.652344 102.925781 74.242188 C 103.261719 74.535156 104.300781 75.308594 104.773438 74.933594 C 105.707031 74.167969 103.921875 72.195312 103.414062 71.515625 C 102.667969 70.523438 101.851562 69.589844 101.054688 68.640625 C 100.449219 67.917969 99.855469 67.179688 99.273438 66.433594 C 98.714844 65.726562 98.210938 64.976562 97.765625 64.191406 C 97.75 64.152344 97.730469 64.117188 97.699219 64.058594 C 97.898438 64.074219 99.097656 64.421875 100.09375 63.59375 C 100.191406 63.523438 100.570312 62.867188 100.335938 62.503906 C 100.488281 62.542969 100.617188 62.582031 100.75 62.613281 C 101.980469 62.878906 104.3125 62.726562 104.800781 60.503906 C 105.5625 60.296875 106.304688 60.035156 107.027344 59.714844 C 107.617188 59.445312 108.183594 59.132812 108.644531 58.664062 C 108.832031 58.476562 108.964844 58.261719 109.046875 58.011719 C 109.167969 57.625 109.054688 57.367188 108.675781 57.222656 C 108.191406 57.035156 107.683594 57.03125 107.175781 57.058594 L 107.0625 57.070312 C 107.125 56.984375 107.199219 56.914062 107.289062 56.859375 C 107.863281 56.472656 112.390625 54.570312 112.109375 52.949219 C 111.898438 51.917969 110.402344 51.964844 110.023438 52.164062 C 109.960938 52.195312 109.902344 52.25 109.824219 52.21875 C 110.699219 51.671875 115.265625 48.695312 114.605469 47.207031 C 114.207031 46.292969 112.433594 47.636719 112.121094 47.863281 C 112.078125 47.90625 112.027344 47.925781 111.964844 47.925781 C 112.167969 47.71875 112.355469 47.539062 112.535156 47.355469 C 113.335938 46.542969 115.230469 44.886719 114.9375 43.980469 C 113.648438 42.332031 109.734375 46.242188 108.800781 47.035156 C 108.609375 47.199219 108.417969 47.355469 108.226562 47.515625 C 107.75 47.894531 107.277344 48.28125 106.78125 48.636719 C 105.648438 49.46875 104.414062 50.089844 103.074219 50.503906 C 102.484375 50.683594 101.894531 50.871094 101.320312 51.101562 C 100.75 51.328125 100.210938 51.542969 99.667969 51.785156 C 98.238281 52.425781 96.890625 53.191406 95.769531 54.308594 C 95.40625 54.695312 95 55.027344 94.550781 55.300781 C 94.195312 55.53125 93.808594 55.609375 93.390625 55.53125 C 93.230469 55.496094 93.117188 55.429688 93.101562 55.234375 C 93.074219 54.945312 93.019531 54.65625 92.976562 54.367188 C 92.804688 53.328125 92.601562 52.300781 92.09375 51.359375 C 91.871094 50.917969 91.566406 50.550781 91.183594 50.246094 C 90.796875 49.941406 90.363281 49.734375 89.886719 49.625 C 89.1875 49.457031 87.484375 49.625 87.019531 51.136719 C 86.972656 51.3125 86.890625 51.46875 86.773438 51.605469 C 86.644531 51.6875 86.523438 51.773438 86.410156 51.871094 C 86.15625 52.019531 85.414062 52.855469 85.464844 52.976562 C 85.515625 53.101562 87.273438 53.324219 87.273438 53.324219 C 87.402344 53.484375 87.527344 53.644531 87.65625 53.808594 C 87.835938 54.046875 87.804688 54.230469 87.546875 54.386719 C 86.605469 54.957031 85.027344 58.226562 86.128906 62.152344 Z M 109.789062 52.246094 C 109.800781 52.238281 109.808594 52.226562 109.816406 52.214844 C 109.824219 52.230469 109.824219 52.242188 109.804688 52.25 C 109.789062 52.257812 109.796875 52.25 109.789062 52.25 Z M 88.65625 51.347656 C 88.441406 51.601562 88.125 51.757812 87.953125 51.613281 C 87.882812 51.527344 87.871094 51.433594 87.914062 51.328125 C 87.957031 51.226562 88.03125 51.167969 88.144531 51.15625 C 88.304688 51.148438 88.460938 51.175781 88.605469 51.238281 C 88.648438 51.257812 88.710938 51.285156 88.65625 51.347656 Z M 88.65625 51.347656 " fill-opacity="1" fill-rule="nonzero"/></g><g clip-path="url(#68ae481b6d)"><path fill="#338dc9" d="M 69.753906 54.363281 C 69.710938 54.65625 69.65625 54.941406 69.628906 55.234375 C 69.613281 55.429688 69.496094 55.5 69.339844 55.527344 C 68.921875 55.609375 68.535156 55.53125 68.179688 55.300781 C 67.730469 55.023438 67.324219 54.695312 66.960938 54.308594 C 65.839844 53.191406 64.492188 52.425781 63.0625 51.785156 C 62.519531 51.539062 61.960938 51.320312 61.40625 51.097656 C 60.855469 50.875 60.246094 50.683594 59.65625 50.503906 C 58.316406 50.089844 57.082031 49.464844 55.949219 48.636719 C 55.453125 48.277344 54.976562 47.894531 54.503906 47.515625 C 54.382812 47.238281 54.160156 47.03125 53.988281 46.789062 C 53.609375 46.296875 53.324219 45.753906 53.128906 45.164062 C 53.054688 44.941406 53.039062 44.710938 53.082031 44.476562 C 53.195312 43.871094 53.636719 43.664062 54.179688 43.960938 C 54.542969 44.175781 54.878906 44.425781 55.1875 44.714844 C 55.230469 44.75 55.273438 44.78125 55.320312 44.8125 C 55.320312 44.816406 55.320312 44.820312 55.320312 44.824219 C 55.320312 44.824219 55.328125 44.824219 55.332031 44.824219 L 55.3125 44.816406 C 55.210938 44.578125 55.003906 44.425781 54.855469 44.226562 C 54.414062 43.632812 53.964844 43.042969 53.699219 42.34375 C 53.628906 42.152344 53.59375 41.953125 53.59375 41.75 C 53.585938 41.371094 53.984375 41.046875 54.402344 41.074219 C 54.699219 41.109375 54.96875 41.210938 55.214844 41.382812 C 55.644531 41.667969 56.039062 41.996094 56.394531 42.367188 C 57.367188 43.335938 58.144531 44.46875 59.011719 45.527344 C 59.65625 46.339844 60.355469 47.109375 61.105469 47.828125 C 61.972656 48.617188 62.9375 49.269531 63.992188 49.785156 C 65.101562 50.351562 66.214844 50.917969 67.207031 51.683594 C 68.132812 52.402344 68.925781 53.242188 69.582031 54.210938 C 69.628906 54.273438 69.648438 54.363281 69.753906 54.363281 Z M 69.753906 54.363281 " fill-opacity="1" fill-rule="nonzero"/></g><g clip-path="url(#08cb285f91)"><path fill="#c5a85c" d="M 75.179688 54.390625 C 74.921875 54.234375 74.890625 54.046875 75.070312 53.8125 C 75.195312 53.648438 75.324219 53.488281 75.453125 53.328125 C 75.453125 53.328125 77.210938 53.105469 77.261719 52.980469 C 77.3125 52.855469 76.570312 52.019531 76.316406 51.875 C 76.203125 51.777344 76.082031 51.6875 75.953125 51.605469 C 75.832031 51.46875 75.753906 51.3125 75.707031 51.136719 C 75.246094 49.632812 73.539062 49.457031 72.839844 49.625 C 72.363281 49.738281 71.929688 49.945312 71.542969 50.25 C 71.160156 50.550781 70.855469 50.921875 70.632812 51.359375 C 70.125 52.300781 69.921875 53.332031 69.75 54.367188 C 69.707031 54.660156 69.652344 54.945312 69.625 55.238281 C 69.609375 55.433594 69.492188 55.503906 69.335938 55.53125 C 68.917969 55.613281 68.53125 55.535156 68.175781 55.304688 C 67.726562 55.027344 67.320312 54.699219 66.957031 54.3125 C 65.835938 53.195312 64.488281 52.429688 63.058594 51.789062 C 62.515625 51.542969 61.957031 51.324219 61.402344 51.101562 C 60.851562 50.878906 60.242188 50.6875 59.652344 50.507812 C 58.3125 50.09375 57.078125 49.46875 55.945312 48.640625 C 55.449219 48.28125 54.972656 47.898438 54.5 47.519531 C 54.308594 47.359375 54.117188 47.199219 53.925781 47.039062 C 52.992188 46.238281 49.074219 42.335938 47.789062 43.980469 C 47.496094 44.890625 49.390625 46.546875 50.191406 47.359375 C 50.371094 47.542969 50.554688 47.722656 50.761719 47.925781 C 50.699219 47.929688 50.648438 47.90625 50.605469 47.863281 C 50.289062 47.640625 48.523438 46.296875 48.121094 47.210938 C 47.460938 48.699219 52.023438 51.675781 52.902344 52.222656 C 52.824219 52.25 52.769531 52.199219 52.703125 52.167969 C 52.324219 51.964844 50.828125 51.921875 50.617188 52.949219 C 50.335938 54.574219 54.863281 56.476562 55.4375 56.863281 C 55.527344 56.917969 55.601562 56.988281 55.664062 57.070312 L 55.550781 57.0625 C 55.042969 57.03125 54.535156 57.039062 54.050781 57.226562 C 53.671875 57.371094 53.558594 57.625 53.679688 58.015625 C 53.761719 58.261719 53.894531 58.480469 54.082031 58.664062 C 54.542969 59.132812 55.109375 59.445312 55.699219 59.714844 C 56.421875 60.035156 57.160156 60.300781 57.921875 60.507812 C 58.414062 62.730469 60.746094 62.886719 61.976562 62.613281 C 62.109375 62.585938 62.246094 62.546875 62.390625 62.507812 C 62.15625 62.871094 62.535156 63.527344 62.632812 63.597656 C 63.628906 64.421875 64.828125 64.078125 65.027344 64.058594 C 64.996094 64.121094 64.976562 64.160156 64.960938 64.191406 C 64.511719 64.980469 64.007812 65.730469 63.449219 66.441406 C 62.867188 67.1875 62.273438 67.921875 61.664062 68.644531 C 60.863281 69.597656 60.054688 70.53125 59.308594 71.519531 C 58.796875 72.203125 57.011719 74.171875 57.949219 74.941406 C 58.417969 75.320312 59.460938 74.539062 59.792969 74.246094 C 60.460938 73.65625 62.347656 71.417969 62.386719 71.363281 C 62.386719 71.445312 61.453125 72.640625 61.097656 73.175781 C 60.644531 73.863281 59.496094 75.902344 59.832031 76.246094 C 60.417969 76.839844 61.324219 75.550781 62.808594 73.40625 C 61.625 75.515625 61.007812 78.121094 61.652344 78.3125 C 62.292969 78.507812 63.613281 76.363281 63.9375 75.644531 C 64.035156 75.40625 64.144531 75.175781 64.273438 74.949219 C 64.304688 75.074219 64.304688 75.203125 64.273438 75.328125 C 64.195312 76 64.058594 76.667969 64.078125 77.351562 C 64.085938 77.632812 64.097656 77.914062 64.261719 78.160156 C 64.3125 78.257812 64.394531 78.3125 64.503906 78.328125 C 64.613281 78.34375 64.703125 78.308594 64.78125 78.230469 C 64.921875 78.101562 65.03125 77.949219 65.113281 77.773438 C 65.554688 76.773438 65.8125 75.71875 66.089844 74.667969 C 66.140625 74.410156 66.210938 74.15625 66.300781 73.90625 C 66.339844 73.972656 66.359375 74.042969 66.351562 74.117188 C 66.398438 74.53125 66.386719 74.945312 66.390625 75.359375 C 66.402344 76.234375 66.65625 79.109375 67.742188 78.960938 C 69.171875 78.96875 68.890625 75.191406 68.878906 74.226562 C 68.859375 72.828125 68.847656 71.425781 68.933594 70.03125 C 68.976562 69.304688 69.234375 68.707031 69.882812 68.269531 C 70.816406 67.644531 75.914062 65.488281 76.589844 62.160156 C 77.691406 58.226562 76.113281 54.957031 75.179688 54.390625 Z M 52.914062 52.257812 C 52.894531 52.25 52.894531 52.238281 52.902344 52.222656 C 52.910156 52.234375 52.921875 52.242188 52.929688 52.253906 C 52.929688 52.253906 52.917969 52.253906 52.914062 52.253906 Z M 74.113281 51.242188 C 74.261719 51.179688 74.414062 51.148438 74.578125 51.160156 C 74.6875 51.171875 74.765625 51.230469 74.804688 51.332031 C 74.847656 51.433594 74.835938 51.53125 74.765625 51.617188 C 74.59375 51.761719 74.277344 51.605469 74.0625 51.351562 C 74.007812 51.285156 74.070312 51.257812 74.113281 51.238281 Z M 74.113281 51.242188 " fill-opacity="1" fill-rule="nonzero"/></g></g></g></svg>